<svg width="21" height="20" viewBox="0 0 21 20" fill="none" xmlns="http://www.w3.org/2000/svg">
<path d="M17.4423 7.94254L11.1923 14.1925C11.1342 14.2506 11.0653 14.2967 10.9894 14.3282C10.9136 14.3597 10.8322 14.3758 10.7501 14.3758C10.668 14.3758 10.5866 14.3597 10.5108 14.3282C10.4349 14.2967 10.366 14.2506 10.3079 14.1925L4.05792 7.94254C3.94064 7.82526 3.87476 7.6662 3.87476 7.50035C3.87476 7.3345 3.94064 7.17544 4.05792 7.05816C4.17519 6.94088 4.33425 6.875 4.5001 6.875C4.66596 6.875 4.82502 6.94088 4.94229 7.05816L10.7501 12.8668L16.5579 7.05816C16.616 7.00009 16.6849 6.95403 16.7608 6.9226C16.8367 6.89117 16.918 6.875 17.0001 6.875C17.0822 6.875 17.1635 6.89117 17.2394 6.9226C17.3153 6.95403 17.3842 7.00009 17.4423 7.05816C17.5004 7.11623 17.5464 7.18517 17.5778 7.26104C17.6093 7.33691 17.6255 7.41823 17.6255 7.50035C17.6255 7.58247 17.6093 7.66379 17.5778 7.73966C17.5464 7.81553 17.5004 7.88447 17.4423 7.94254Z" fill="#11151D"/>
</svg>
